#N canvas 4098 292 1052 748 12;
#X obj 132 542 netsend -u -b;
#X obj 134 421 list prepend send;
#X obj 137 445 list trim;
#X msg 145 514 disconnect;
#X msg 121 490 connect localhost 12000;
#X floatatom 133 586 5 0 0 0 - - -;
#X obj 191 327 oscformat /reset;
#X obj 138 328 bng 15 250 50 0 empty reset empty 17 7 0 10 -262144
-1 -1;
#X obj 163 326 f 1;
#X obj 335 328 oscformat /test;
#X floatatom 335 302 5 0 0 0 - - -;
#X obj 333 196 metro 500;
#X obj 337 239 random 120;
#X obj 343 150 tgl 15 0 empty empty empty 17 7 0 10 -262144 -1 -1 0
1;
#X msg 258 457 connect 10.33.196.152 8000;
#X msg 319 489 connect 192.168.9.110 8000;
#X obj 569 49 oscparse;
#X obj 568 78 list trim;
#X floatatom 566 153 5 0 0 0 - - -;
#X floatatom 651 149 5 0 0 0 - - -;
#X floatatom 738 148 5 0 0 0 - - -;
#X text 393 20 RECEIVE FROM PROCESSING;
#X obj 563 19 netreceive -u -b 10000;
#X obj 624 149 bng 15 250 50 0 empty empty empty 17 7 0 10 -262144
-1 -1;
#X obj 837 162 bng 15 250 50 0 empty empty empty 17 7 0 10 -262144
-1 -1;
#X obj 730 213 s alphaTrigger;
#X obj 635 213 s HRTrigger;
#X obj 533 212 s GSRTrigger;
#X obj 564 115 route GSRTrigger HRTrigger alphaTrigger state substate
;
#X obj 687 334 ctlout 2 1;
#X obj 772 334 ctlout 3 1;
#X obj 533 336 ctlout 0 1;
#X obj 611 332 ctlout 1 1;
#X connect 0 0 5 0;
#X connect 1 0 2 0;
#X connect 2 0 0 0;
#X connect 3 0 0 0;
#X connect 4 0 0 0;
#X connect 6 0 1 0;
#X connect 7 0 8 0;
#X connect 8 0 6 0;
#X connect 9 0 1 0;
#X connect 10 0 9 0;
#X connect 11 0 12 0;
#X connect 12 0 10 0;
#X connect 12 0 29 0;
#X connect 12 0 30 0;
#X connect 12 0 31 0;
#X connect 12 0 32 0;
#X connect 13 0 11 0;
#X connect 14 0 0 0;
#X connect 15 0 0 0;
#X connect 16 0 17 0;
#X connect 17 0 28 0;
#X connect 18 0 27 0;
#X connect 19 0 26 0;
#X connect 20 0 25 0;
#X connect 22 0 16 0;
#X connect 28 0 18 0;
#X connect 28 1 19 0;
#X connect 28 1 23 0;
#X connect 28 2 20 0;
#X connect 28 2 24 0;
